<?xml version="1.0" standalone="no"?><!DOCTYPE svg PUBLIC "-//W3C//DTD SVG 1.1//EN" "http://www.w3.org/Graphics/SVG/1.1/DTD/svg11.dtd"><svg t="1672734702330" class="icon" viewBox="0 0 1024 1024" version="1.1" xmlns="http://www.w3.org/2000/svg" p-id="2714" xmlns:xlink="http://www.w3.org/1999/xlink" width="500" height="500"><path d="M858.670545 888.366545c-77.358545 69.12-165.096727 111.709091-263.354181 127.674182-98.210909 15.918545-194.420364 3.956364-288.628364-35.933091C212.433455 937.565091 138.007273 874.589091 83.316364 791.272727 28.672 707.956364 0.930909 614.865455 0 512h85.317818c0.930909 89.553455 25.6 169.797818 74.007273 240.686545 48.453818 70.935273 114.455273 122.833455 198.004364 155.601455 83.549091 31.930182 167.330909 38.167273 251.345454 18.618182 84.014545-19.502545 156.672-62.045091 217.972364-127.674182h-123.997091a41.565091 41.565091 0 0 1-30.673455-11.962182 40.541091 40.541091 0 0 1-11.962182-29.928727c0-11.962182 4.002909-21.922909 12.008728-29.882182a46.545455 46.545455 0 0 1 30.626909-13.312h198.702545a45.102545 45.102545 0 0 1 29.323637 13.312 44.869818 44.869818 0 0 1 13.312 29.230546v198.144a46.266182 46.266182 0 0 1-13.312 30.580363 40.773818 40.773818 0 0 1-30.021819 12.008727 40.773818 40.773818 0 0 1-29.975272-12.008727 41.378909 41.378909 0 0 1-12.008728-30.580363v-66.46691zM197.352727 224.768h123.997091c12.427636 0 22.667636 3.956364 30.673455 11.962182a40.541091 40.541091 0 0 1 11.962182 29.928727 40.541091 40.541091 0 0 1-12.008728 29.882182 46.545455 46.545455 0 0 1-30.626909 13.312H122.647273a45.102545 45.102545 0 0 1-29.323637-13.312 44.869818 44.869818 0 0 1-13.312-29.230546V69.166545a46.266182 46.266182 0 0 1 13.312-30.580363A40.773818 40.773818 0 0 1 123.345455 26.530909c12.008727 0 21.969455 4.002909 29.975272 12.008727 8.005818 7.959273 12.008727 18.152727 12.008728 30.580364v66.466909C242.688 66.56 330.472727 23.924364 428.683636 7.959273c98.210909-15.918545 194.885818-3.956364 289.978182 35.933091C812.869818 86.434909 887.156364 149.410909 941.335273 232.727273c54.225455 83.316364 81.780364 176.407273 82.664727 279.272727h-85.317818c-0.930909-89.553455-25.6-169.797818-74.007273-240.686545-48.453818-70.935273-114.455273-122.833455-198.004364-155.601455-83.549091-31.930182-167.330909-38.167273-251.345454-18.618182-84.014545 19.502545-156.672 62.045091-217.972364 127.674182z" fill="#1A94C2" p-id="2715"></path></svg>